<?xml version="1.0" encoding="utf-8"?>
<!-- Generator: Adobe Illustrator 22.1.0, SVG Export Plug-In . SVG Version: 6.00 Build 0)  -->
<svg version="1.1" id="Layer_1" xmlns="http://www.w3.org/2000/svg" xmlns:xlink="http://www.w3.org/1999/xlink" x="0px" y="0px"
	 viewBox="0 0 640 640" style="enable-background:new 0 0 640 640;" xml:space="preserve">
<style type="text/css">
	.st0{fill:#F05D22;}
	.st1{fill:none;stroke:#F05D22;stroke-width:13;stroke-miterlimit:10;}
</style>
<path class="st0" d="M317.3,13c41.5,0,81.7,8.1,119.5,24.1c36.6,15.5,69.4,37.6,97.6,65.8c28.2,28.2,50.3,61,65.8,97.6
	c16,37.8,24.1,78,24.1,119.5s-8.1,81.7-24.1,119.5c-15.5,36.6-37.6,69.4-65.8,97.6c-28.2,28.2-61,50.3-97.6,65.8
	c-37.8,16-78,24.1-119.5,24.1s-81.7-8.1-119.5-24.1c-36.6-15.5-69.4-37.6-97.6-65.8s-50.3-61-65.8-97.6c-16-37.8-24.1-78-24.1-119.5
	s8.1-81.7,24.1-119.5c15.5-36.6,37.6-69.4,65.8-97.6c28.2-28.2,61-50.3,97.6-65.8C235.7,21.1,275.9,13,317.3,13 M317.3,0
	C140.6,0-2.7,143.2-2.7,320s143.3,320,320,320s320-143.3,320-320S494,0,317.3,0L317.3,0z"/>
<g>
	<path class="st1" d="M447,448.9H189.6c-6.6,0-12-5.4-12-12V318.1c0-6.6,5.4-12,12-12H447c6.6,0,12,5.4,12,12v118.8
		C459,443.5,453.6,448.9,447,448.9z"/>
	<line class="st1" x1="142.8" y1="265.7" x2="490.9" y2="265.7"/>
	<line class="st1" x1="318.9" y1="448.9" x2="318.9" y2="306.1"/>
	<line class="st1" x1="249" y1="306.1" x2="249" y2="448.9"/>
	<line class="st1" x1="388.7" y1="306.1" x2="388.7" y2="448.9"/>
	<g>
		<path class="st1" d="M464.1,178.7h-5.7V198c0,10.9-8.9,19.9-19.9,19.9h0c-10.9,0-19.9-8.9-19.9-19.9v-19.4h-77.4V198
			c0,10.9-8.9,19.9-19.9,19.9h0c-10.9,0-19.9-8.9-19.9-19.9v-19.4h-84.1V198c0,10.9-8.9,19.9-19.9,19.9h0
			c-10.9,0-19.9-8.9-19.9-19.9v-19.4h-6c-15.3,0-27.7,12.5-27.7,27.7v252.5c0,15.3,12.5,27.7,27.7,27.7h292.6
			c15.3,0,27.7-12.5,27.7-27.7V206.4C491.8,191.1,479.4,178.7,464.1,178.7z M178.6,377.5h280.3H178.6z"/>
		<path class="st1" d="M217.3,178.7v-19.4c0-10.9-8.9-19.9-19.9-19.9h0c-10.9,0-19.9,8.9-19.9,19.9v19.4"/>
		<path class="st1" d="M177.5,178.7V198c0,10.9,8.9,19.9,19.9,19.9h0c10.9,0,19.9-8.9,19.9-19.9v-19.4"/>
		<path class="st1" d="M341.2,178.7v-19.4c0-10.9-8.9-19.9-19.9-19.9h0c-10.9,0-19.9,8.9-19.9,19.9v19.4"/>
		<path class="st1" d="M301.4,178.7V198c0,10.9,8.9,19.9,19.9,19.9h0c10.9,0,19.9-8.9,19.9-19.9v-19.4"/>
		<path class="st1" d="M458.4,178.7v-19.4c0-10.9-8.9-19.9-19.9-19.9h0c-10.9,0-19.9,8.9-19.9,19.9v19.4"/>
		<path class="st1" d="M418.6,178.7V198c0,10.9,8.9,19.9,19.9,19.9h0c10.9,0,19.9-8.9,19.9-19.9v-19.4"/>
	</g>
</g>
</svg>
