<?xml version="1.0" encoding="utf-8"?>
<!-- Generator: Adobe Illustrator 22.1.0, SVG Export Plug-In . SVG Version: 6.00 Build 0)  -->
<svg version="1.1" id="Layer_1" xmlns="http://www.w3.org/2000/svg" xmlns:xlink="http://www.w3.org/1999/xlink" x="0px" y="0px"
	 viewBox="0 0 640 640" style="enable-background:new 0 0 640 640;" xml:space="preserve">
<style type="text/css">
	.st0{fill:#00A3B1;}
</style>
<path class="st0" d="M319,13c41.5,0,81.7,8.1,119.5,24.1c36.6,15.5,69.4,37.6,97.6,65.8c28.2,28.2,50.3,61,65.8,97.6
	c16,37.8,24.1,78,24.1,119.5s-8.1,81.7-24.1,119.5c-15.5,36.6-37.6,69.4-65.8,97.6c-28.2,28.2-61,50.3-97.6,65.8
	c-37.8,16-78,24.1-119.5,24.1s-81.7-8.1-119.5-24.1c-36.6-15.5-69.4-37.6-97.6-65.8s-50.3-61-65.8-97.6C20.1,401.7,12,361.5,12,320
	s8.1-81.7,24.1-119.5c15.5-36.6,37.6-69.4,65.8-97.6c28.2-28.2,61-50.3,97.6-65.8C237.3,21.1,277.5,13,319,13 M319,0
	C142.2,0-1,143.3-1,320s143.3,320,320,320s320-143.3,320-320S495.7,0,319,0L319,0z"/>
<g>
	<path class="st0" d="M384.6,215.1h-16.3v-4.4h5c9.7,0,17.6-7.9,17.6-17.6v-39.5c0-9.7-7.9-17.6-17.6-17.6H260.6
		c-9.7,0-17.6,7.9-17.6,17.6v39.5c0,9.7,7.9,17.6,17.6,17.6h5v4.4h-16.3c-28.3,0-51.4,23.1-51.4,51.4V447
		c0,28.3,23.1,51.4,51.4,51.4h135.4c28.3,0,51.4-23.1,51.4-51.4V266.5C436,238.2,413,215.1,384.6,215.1z M255.6,153.7
		c0-2.8,2.2-5,5-5h112.8c2.8,0,5,2.2,5,5v39.5c0,2.8-2.2,5-5,5H260.6c-2.8,0-5-2.2-5-5V153.7z M423.5,284.1v145.4h-213V284.1H423.5z
		 M350.1,271.5H210.5v-5c0-21.4,17.4-38.8,38.8-38.8h22.6c3.5,0,6.3-2.8,6.3-6.3v-10.6h77.7v10.6c0,3.5,2.8,6.3,6.3,6.3h22.6
		c21.4,0,38.8,17.4,38.8,38.8v5H350.1z M423.5,442v5c0,21.4-17.4,38.8-38.8,38.8H249.3c-21.4,0-38.8-17.4-38.8-38.8v-5H423.5z"/>
	<path class="st0" d="M317,154.1c-2.9,0-5.3,2.4-5.3,5.3v28.2c0,2.9,2.4,5.3,5.3,5.3c2.9,0,5.3-2.4,5.3-5.3v-28.2
		C322.3,156.4,319.9,154.1,317,154.1z"/>
	<path class="st0" d="M339.5,154.1c-2.9,0-5.3,2.4-5.3,5.3v28.2c0,2.9,2.4,5.3,5.3,5.3c2.9,0,5.3-2.4,5.3-5.3v-28.2
		C344.8,156.4,342.4,154.1,339.5,154.1z"/>
	<path class="st0" d="M367.4,187.6v-28.2c0-2.9-2.4-5.3-5.3-5.3s-5.3,2.4-5.3,5.3v28.2c0,2.9,2.4,5.3,5.3,5.3
		S367.4,190.5,367.4,187.6z"/>
	<path class="st0" d="M294.4,154.1c-2.9,0-5.3,2.4-5.3,5.3v28.2c0,2.9,2.4,5.3,5.3,5.3c2.9,0,5.3-2.4,5.3-5.3v-28.2
		C299.7,156.4,297.3,154.1,294.4,154.1z"/>
	<path class="st0" d="M271.9,154.1c-2.9,0-5.3,2.4-5.3,5.3v28.2c0,2.9,2.4,5.3,5.3,5.3c2.9,0,5.3-2.4,5.3-5.3v-28.2
		C277.1,156.4,274.8,154.1,271.9,154.1z"/>
	<path class="st0" d="M328.2,312h-22.6c-2.9,0-5.3,2.4-5.3,5.3v22.9h-22.9c-2.9,0-5.3,2.4-5.3,5.3V368c0,2.9,2.4,5.3,5.3,5.3h22.9
		v22.9c0,2.9,2.4,5.3,5.3,5.3h22.6c2.9,0,5.3-2.4,5.3-5.3v-22.9h22.9c2.9,0,5.3-2.4,5.3-5.3v-22.6c0-2.9-2.4-5.3-5.3-5.3h-22.9
		v-22.9C333.5,314.3,331.2,312,328.2,312z M351.2,350.8v12h-22.9c-2.9,0-5.3,2.4-5.3,5.3v22.9h-12V368c0-2.9-2.4-5.3-5.3-5.3h-22.9
		v-12h22.9c2.9,0,5.3-2.4,5.3-5.3v-22.9h12v22.9c0,2.9,2.4,5.3,5.3,5.3H351.2z"/>
</g>
</svg>
