<?xml version="1.0" encoding="utf-8"?>
<!-- Generator: Adobe Illustrator 22.1.0, SVG Export Plug-In . SVG Version: 6.00 Build 0)  -->
<svg version="1.1" id="Layer_1" xmlns="http://www.w3.org/2000/svg" xmlns:xlink="http://www.w3.org/1999/xlink" x="0px" y="0px"
	 viewBox="0 0 640 640" style="enable-background:new 0 0 640 640;" xml:space="preserve">
<style type="text/css">
	.st0{fill:#2C9AD5;}
</style>
<path class="st0" d="M412.4,101.9H229.2c-17.6,0-32,14.4-32,32v372.4c0,17.6,14.4,32,32,32h183.3c17.7,0,32-14.3,32-32V133.9
	C444.5,116.3,430.1,101.9,412.4,101.9L412.4,101.9z M211.7,160.1h218.3v276.5H211.7V160.1z M229.2,116.5h183.3
	c9.6,0,17.5,7.9,17.5,17.5v11.6H211.7v-11.6C211.7,124.3,219.5,116.5,229.2,116.5L229.2,116.5z M412.4,523.9H229.2
	c-9.6,0-17.5-7.9-17.5-17.5v-55.3h218.3v55.3C429.9,516,422.1,523.9,412.4,523.9L412.4,523.9z M412.4,523.9"/>
<path class="st0" d="M320.8,458.4c-18.2,0-32.5,16.8-28.4,35.6c2.4,10.9,11.3,19.7,22.3,22c18.7,3.8,35.2-10.5,35.2-28.5
	C349.9,471.5,336.9,458.4,320.8,458.4L320.8,458.4z M320.8,502.1c-9.5,0-16.9-9.2-13.9-19.1c1.3-4.3,4.8-7.8,9.2-9.2
	c10-3.2,19.2,4.3,19.2,13.8C335.3,495.5,328.8,502.1,320.8,502.1L320.8,502.1z M320.8,502.1"/>
<path class="st0" d="M291.7,138.3h29.1c4,0,7.3-3.3,7.3-7.3c0-4-3.3-7.3-7.3-7.3h-29.1c-4.1,0-7.3,3.3-7.3,7.3
	C284.4,135,287.7,138.3,291.7,138.3L291.7,138.3z M291.7,138.3"/>
<path class="st0" d="M342.6,138.3h7.3c4,0,7.3-3.3,7.3-7.3c0-4-3.3-7.3-7.3-7.3h-7.3c-4,0-7.3,3.3-7.3,7.3
	C335.3,135,338.6,138.3,342.6,138.3L342.6,138.3z M342.6,138.3"/>
<path class="st0" d="M320.8,13.2c41.5,0,81.7,8.1,119.5,24.1c36.6,15.5,69.4,37.6,97.6,65.8c28.2,28.2,50.3,61,65.8,97.6
	c16,37.8,24.1,78,24.1,119.5s-8.1,81.7-24.1,119.5c-15.5,36.6-37.6,69.4-65.8,97.6s-61,50.3-97.6,65.8c-37.8,16-78,24.1-119.5,24.1
	s-81.7-8.1-119.5-24.1c-36.6-15.5-69.4-37.6-97.6-65.8s-50.3-61-65.8-97.6c-16-37.8-24.1-78-24.1-119.5s8.1-81.7,24.1-119.5
	c15.5-36.6,37.6-69.4,65.8-97.6c28.2-28.2,61-50.3,97.6-65.8C239.1,21.3,279.3,13.2,320.8,13.2 M320.8,0.2
	c-176.7,0-320,143.3-320,320s143.3,320,320,320s320-143.3,320-320S497.5,0.2,320.8,0.2L320.8,0.2z"/>
<rect x="313.5" y="156.3" transform="matrix(6.123234e-17 -1 1 6.123234e-17 85.4908 556.0974)" class="st0" width="14.6" height="158"/>
<rect x="313.5" y="197.8" transform="matrix(6.123234e-17 -1 1 6.123234e-17 43.9908 597.5974)" class="st0" width="14.6" height="158"/>
<rect x="313.5" y="239.3" transform="matrix(6.123234e-17 -1 1 6.123234e-17 2.4908 639.0974)" class="st0" width="14.6" height="158"/>
<rect x="313.5" y="280.8" transform="matrix(6.123234e-17 -1 1 6.123234e-17 -39.0092 680.5974)" class="st0" width="14.6" height="158"/>
<rect x="313.5" y="322.3" transform="matrix(6.123234e-17 -1 1 6.123234e-17 -80.5092 722.0974)" class="st0" width="14.6" height="158"/>
</svg>
