<?xml version="1.0" encoding="utf-8"?>
<!-- Generator: Adobe Illustrator 22.1.0, SVG Export Plug-In . SVG Version: 6.00 Build 0)  -->
<svg version="1.1" id="Layer_1" xmlns="http://www.w3.org/2000/svg" xmlns:xlink="http://www.w3.org/1999/xlink" x="0px" y="0px"
	 viewBox="0 0 640 640" style="enable-background:new 0 0 640 640;" xml:space="preserve">
<style type="text/css">
	.st0{fill:#934D9D;}
	.st1{fill:none;stroke:#934D9D;stroke-width:13;stroke-miterlimit:10;}
</style>
<path class="st0" d="M320.8,13c41.5,0,81.7,8.1,119.5,24.1c36.6,15.5,69.4,37.6,97.6,65.8c28.2,28.2,50.3,61,65.8,97.6
	c16,37.8,24.1,78,24.1,119.5s-8.1,81.7-24.1,119.5c-15.5,36.6-37.6,69.4-65.8,97.6s-61,50.3-97.6,65.8c-37.8,16-78,24.1-119.5,24.1
	s-81.7-8.1-119.5-24.1c-36.6-15.5-69.4-37.6-97.6-65.8s-50.3-61-65.8-97.6c-16-37.8-24.1-78-24.1-119.5s8.1-81.7,24.1-119.5
	c15.5-36.6,37.6-69.4,65.8-97.6c28.2-28.2,61-50.3,97.6-65.8C239.1,21.1,279.4,13,320.8,13 M320.8,0C144.1,0,0.8,143.3,0.8,320
	s143.3,320,320,320s320-143.3,320-320S497.5,0,320.8,0L320.8,0z"/>
<polyline class="st1" points="258.9,205.5 269,139.8 357.4,139.8 368.8,205.5 "/>
<polyline class="st1" points="258.9,451.9 269,517.6 357.4,517.6 368.8,451.9 "/>
<circle class="st1" cx="314.2" cy="328.2" r="137.1"/>
<circle class="st1" cx="314.2" cy="328.2" r="107.3"/>
<line class="st1" x1="295.1" y1="395" x2="331.7" y2="395"/>
<line class="st1" x1="313.4" y1="240.9" x2="313.4" y2="310.4"/>
<line class="st1" x1="331.7" y1="326.8" x2="387.3" y2="326.8"/>
<circle class="st1" cx="314.2" cy="328.2" r="18.3"/>
<path class="st1" d="M460.3,326.8c0,0-2.1,0-4.7,0c-2.6,0-4.7,0-4.7,0s2.1,0,4.7,0C458.2,326.8,460.3,326.8,460.3,326.8z"/>
<path class="st0" d="M470.2,340.5h-8.4c-0.8,0-1.5-0.7-1.5-1.5v-23.5c0-0.8,0.7-1.5,1.5-1.5h8.4c0.8,0,1.5,0.7,1.5,1.5V339
	C471.7,339.9,471,340.5,470.2,340.5z"/>
</svg>
